<?xml version="1.0" encoding="UTF-8"?>
<svg id="Layer_2" data-name="Layer 2" xmlns="http://www.w3.org/2000/svg" viewBox="0 0 26.3 26.3">
  <defs>
    <style>
      .cls-1 {
        fill: #f8a81a;
      }
    </style>
  </defs>
  <g id="Icons">
    <g>
      <path class="cls-1" d="m13.15,2.37c3.51,0,3.93.01,5.31.08,1.28.06,1.98.27,2.44.45.61.24,1.05.52,1.51.98.46.46.75.9.98,1.51.18.46.39,1.16.45,2.44.06,1.39.08,1.8.08,5.31s-.01,3.93-.08,5.31c-.06,1.28-.27,1.98-.45,2.44-.24.61-.52,1.05-.98,1.51-.46.46-.9.74-1.51.98-.46.18-1.16.39-2.44.45-1.39.06-1.8.08-5.31.08s-3.93-.01-5.31-.08c-1.28-.06-1.98-.27-2.44-.45-.61-.24-1.05-.52-1.51-.98-.46-.46-.75-.9-.98-1.51-.18-.46-.39-1.16-.45-2.44-.06-1.39-.08-1.8-.08-5.31s.01-3.93.08-5.31c.06-1.28.27-1.98.45-2.44.24-.61.52-1.05.98-1.51.46-.46.9-.74,1.51-.98.46-.18,1.16-.39,2.44-.45,1.39-.06,1.8-.08,5.31-.08m0-2.37c-3.57,0-4.02.02-5.42.08-1.4.06-2.36.29-3.19.61-.86.34-1.6.79-2.33,1.52s-1.18,1.46-1.52,2.33c-.33.84-.55,1.79-.61,3.19-.06,1.4-.08,1.85-.08,5.42s.01,4.02.08,5.42c.06,1.4.29,2.36.61,3.19.34.86.79,1.6,1.52,2.33s1.46,1.18,2.33,1.52c.84.32,1.79.55,3.19.61,1.4.06,1.85.08,5.42.08s4.02-.01,5.42-.08c1.4-.06,2.36-.29,3.19-.61.86-.34,1.6-.79,2.33-1.52s1.18-1.46,1.52-2.33c.32-.84.55-1.79.61-3.19.06-1.4.08-1.85.08-5.42s-.02-4.02-.08-5.42c-.06-1.4-.29-2.36-.61-3.19-.34-.86-.79-1.6-1.52-2.33s-1.46-1.18-2.33-1.52c-.84-.32-1.79-.55-3.19-.61-1.4-.06-1.85-.08-5.42-.08"/>
      <path class="cls-1" d="m13.15,6.4c-3.73,0-6.75,3.02-6.75,6.75s3.02,6.75,6.75,6.75,6.75-3.02,6.75-6.75-3.02-6.75-6.75-6.75m0,11.14c-2.42,0-4.38-1.96-4.38-4.38s1.96-4.38,4.38-4.38,4.38,1.96,4.38,4.38-1.96,4.38-4.38,4.38"/>
      <path class="cls-1" d="m21.75,6.13c0,.87-.71,1.58-1.58,1.58s-1.58-.71-1.58-1.58.71-1.58,1.58-1.58,1.58.71,1.58,1.58"/>
    </g>
  </g>
</svg>