<?xml version="1.0" encoding="UTF-8"?>
<svg id="Layer_2" data-name="Layer 2" xmlns="http://www.w3.org/2000/svg" viewBox="0 0 137.02 137.03">
  <defs>
    <style>
      .cls-1 {
        stroke-width: 2.28px;
      }

      .cls-1, .cls-2, .cls-3, .cls-4, .cls-5 {
        stroke: #221f1f;
      }

      .cls-1, .cls-2, .cls-4, .cls-5 {
        fill: none;
      }

      .cls-1, .cls-2, .cls-4, .cls-5, .cls-6, .cls-7, .cls-8, .cls-9 {
        stroke-miterlimit: 10;
      }

      .cls-10 {
        fill: #221f1f;
      }

      .cls-2 {
        stroke-width: 1.71px;
      }

      .cls-3 {
        fill: #fff;
        stroke-linecap: round;
        stroke-linejoin: round;
        stroke-width: 1.3px;
      }

      .cls-4 {
        stroke-width: .59px;
      }

      .cls-5 {
        stroke-width: .88px;
      }

      .cls-6 {
        fill: #016938;
        stroke: #016938;
      }

      .cls-6, .cls-7, .cls-8, .cls-9 {
        stroke-width: .65px;
      }

      .cls-7 {
        fill: #ea2127;
        stroke: #ea2127;
      }

      .cls-8 {
        fill: #fbed1d;
        stroke: #fbed1d;
      }

      .cls-9 {
        fill: #3a2416;
        stroke: #3a2416;
      }
    </style>
  </defs>
  <g id="line">
    <g>
      <g>
        <path class="cls-6" d="m67.51,88.21c-.33-.02-.49-.15-.47-.46.02-.28.18-.51.44-.43.19.05.42.3.45.49.05.27-.19.4-.42.4Z"/>
        <path class="cls-7" d="m70.34,89.84c.47.03.57.21.53.49-.04.25-.17.49-.43.4-.19-.07-.4-.32-.43-.51-.02-.12.26-.3.33-.38Z"/>
        <path class="cls-7" d="m67.99,97.23c-.06.43-.21.56-.51.52-.26-.03-.48-.19-.4-.43.06-.19.31-.4.5-.43.13-.02.31.25.4.34Z"/>
        <path class="cls-9" d="m66.64,91.76c.17-.1.35-.29.51-.27.23.02.48.17.45.5-.03.31-.29.39-.52.37-.24-.02-.46-.17-.45-.59Z"/>
        <path class="cls-9" d="m73.33,97.1c.09-.35.21-.51.5-.49.3.02.52.2.46.47-.04.17-.3.39-.48.41-.14.01-.31-.25-.47-.39Z"/>
        <path class="cls-9" d="m63.49,105.03c-.02.22-.27.32-.5.31-.24-.01-.43-.18-.42-.48.02-.31.26-.38.47-.37.23.01.47.13.44.54Z"/>
        <path class="cls-9" d="m76.46,104.49c-.01.47-.27.53-.48.51-.25-.02-.52-.19-.42-.49.05-.16.32-.39.45-.37.19.03.35.26.44.34Z"/>
        <path class="cls-7" d="m62.58,94.3c-.11-.18-.33-.4-.3-.55.04-.17.3-.36.5-.4.3-.05.42.25.38.48-.04.18-.25.32-.39.48-.06,0-.13-.01-.19-.02Z"/>
        <path class="cls-9" d="m71.07,101.56c.29-.17.45-.32.63-.35.28-.03.5.19.43.44-.05.18-.33.37-.53.41-.11.02-.28-.25-.53-.5Z"/>
        <path class="cls-9" d="m62.4,99.02c.1.18.28.37.28.55,0,.23-.21.49-.48.38-.17-.07-.34-.32-.36-.51-.01-.14.23-.29.36-.44.06,0,.13.01.19.02Z"/>
        <path class="cls-9" d="m69.68,105.52c-.16.11-.36.33-.47.3-.18-.06-.39-.27-.43-.45-.06-.27.21-.38.44-.38.26,0,.42.14.45.53Z"/>
        <path class="cls-8" d="m65.21,89.12c-.23.1-.35.2-.46.18-.07-.01-.18-.18-.17-.26,0-.09.17-.26.2-.25.12.05.22.16.42.33Z"/>
        <path class="cls-8" d="m75.5,100.25c.11.17.2.27.23.39,0,.04-.18.18-.24.16-.11-.03-.19-.15-.29-.23.08-.08.16-.17.3-.32Z"/>
        <path class="cls-7" d="m71.84,104.64c-.1-.23-.21-.35-.19-.47,0-.08.18-.14.27-.21.06.1.17.19.17.29,0,.1-.12.19-.25.38Z"/>
        <path class="cls-7" d="m66.64,101.45c-.15.1-.26.23-.33.21-.09-.03-.23-.19-.21-.25.03-.11.17-.18.27-.26.07.08.15.17.27.31Z"/>
        <path class="cls-8" d="m66.88,104.63c-.13.04-.26.12-.38.09-.09-.02-.18-.17-.19-.27,0-.07.13-.24.18-.23.1.01.19.12.28.19.03.07.07.14.1.22Z"/>
        <path class="cls-8" d="m64.35,97.49c-.08-.21-.16-.33-.15-.45,0-.06.17-.18.23-.16.09.03.24.17.22.23-.03.12-.16.21-.3.38Z"/>
        <path class="cls-8" d="m70.74,98.67c-.06-.2-.14-.32-.12-.43.01-.07.18-.16.24-.14.09.03.16.15.24.23-.1.09-.19.18-.36.34Z"/>
        <path class="cls-6" d="m60.65,102.15c.13.14.21.23.29.32-.11.07-.21.17-.33.2-.06.01-.21-.14-.2-.2.01-.09.13-.18.24-.31Z"/>
        <path class="cls-6" d="m68.5,95c.01-.16.03-.31.04-.47.11.03.23.05.34.08-.06.15-.11.29-.17.44-.07-.02-.14-.04-.22-.05Z"/>
        <path class="cls-6" d="m72.98,93.27c-.03.15-.06.3-.1.45-.12-.04-.25-.09-.37-.13.09-.13.18-.27.26-.4.07.03.13.06.2.09Z"/>
        <path class="cls-8" d="m73.97,89.64c-.23.06-.36.13-.48.12-.05,0-.13-.2-.1-.28.02-.07.18-.16.25-.14.1.03.18.15.33.3Z"/>
        <path class="cls-8" d="m68.18,84.59c.14.03.35.03.39.11.05.1-.04.27-.07.42-.04,0-.08.01-.12.02-.1-.13-.2-.27-.29-.4.03-.05.06-.09.1-.14Z"/>
        <path class="cls-7" d="m77.42,97.04c-.01.14-.02.29-.04.43-.11-.01-.22-.03-.32-.04.05-.14.09-.28.14-.43.07.01.15.03.22.04Z"/>
      </g>
      <path class="cls-4" d="m108.99,66.27c0,.17.02.35.02.52.02.17.02.35.02.54v.35c.02.28.02.54.02.83,0,22.41-18.15,40.56-40.56,40.56s-40.56-18.15-40.56-40.56,18.15-40.56,40.56-40.56c15.22,0,28.5,8.39,35.43,20.8.62,1.04,2.16,4.41,2.35,4.83"/>
      <g>
        <path class="cls-10" d="m24.96,41.76l1.62,2.11-1.25,1.85-7.23-9.87,1.24-1.84,11.86,3.02-1.31,1.94-8.7-2.43-.56-.22.43.46,2.64,3.41.16.34.1-.22.68-1c.13-.19.29-.33.47-.41.18-.08.38-.13.58-.15.2-.02.41,0,.62.03.21.03.4.08.58.13l-1.93,2.85Z"/>
        <path class="cls-10" d="m34.42,31.96c.44-.41.74-.85.89-1.34s.19-.97.12-1.47-.23-.98-.49-1.45c-.25-.47-.56-.9-.92-1.28-.42-.46-.87-.82-1.35-1.1-.48-.27-.98-.43-1.49-.47-.51-.04-1.05.04-1.59.26-.55.21-1.1.58-1.66,1.09-.16.15-.31.3-.46.47s-.3.35-.45.55l6.77,7.31-1.63,1.51-7.68-8.3c.42-.59.83-1.12,1.24-1.58s.78-.85,1.12-1.17c.78-.72,1.56-1.26,2.35-1.62.79-.37,1.57-.56,2.34-.58s1.51.14,2.23.47c.72.33,1.4.85,2.04,1.54.57.61.99,1.28,1.28,2.01s.43,1.46.43,2.19c0,.73-.15,1.45-.45,2.14-.3.69-.74,1.31-1.33,1.86-.1.1-.21.19-.3.27-.09.08-.2.16-.31.23-.12.08-.25.16-.39.25-.14.09-.32.19-.53.3-.05-.14-.09-.3-.13-.49-.04-.18-.06-.36-.06-.55s.03-.37.09-.55.18-.35.34-.5Z"/>
        <path class="cls-10" d="m42.81,27.32l-1.86,1.22-6.32-9.63,1.85-1.22,6.33,9.62Z"/>
        <path class="cls-10" d="m48.19,22.84c.55-.24.97-.57,1.27-.98s.5-.86.59-1.35.1-1,0-1.53c-.09-.53-.24-1.03-.45-1.51-.25-.57-.56-1.06-.92-1.48-.37-.42-.78-.73-1.26-.93-.47-.21-1-.3-1.59-.28-.59.02-1.23.19-1.93.5-.19.09-.39.18-.59.3-.2.11-.4.24-.61.37l4.03,9.11-2.03.9-4.57-10.34c.59-.42,1.15-.78,1.68-1.09.54-.3,1.02-.55,1.44-.74.96-.43,1.88-.69,2.75-.77.87-.09,1.67-.02,2.4.21.73.23,1.38.62,1.95,1.17s1.05,1.26,1.43,2.11c.34.76.52,1.54.56,2.32s-.07,1.52-.3,2.21c-.24.69-.61,1.32-1.12,1.88s-1.13,1-1.86,1.33c-.13.06-.26.11-.37.16-.11.04-.24.08-.37.12-.14.04-.28.07-.45.11-.16.04-.36.07-.6.11,0-.15.01-.32.04-.5.02-.18.07-.36.13-.54s.15-.34.27-.49c.12-.15.28-.27.48-.36Z"/>
        <path class="cls-10" d="m57.02,18.71l-.37,2.63-2.19.41,1.96-12.08,2.18-.41,6.17,10.56-2.31.43-4.37-7.9-.23-.55-.03.63-.57,4.28-.13.35.23-.08,1.18-.22c.23-.04.44-.02.62.05.18.07.36.17.51.31.15.13.29.29.42.46.12.17.23.34.31.5l-3.38.63Z"/>
        <path class="cls-10" d="m74.45,10.14c-.47-.05-.86.03-1.17.23-.31.2-.48.48-.51.84-.04.36.07.68.31.97.24.29.55.57.92.84s.78.55,1.22.84c.44.29.85.61,1.21.97.36.35.65.76.88,1.22.22.46.3.99.24,1.6-.05.51-.19.94-.43,1.32-.23.38-.54.68-.92.91-.38.23-.82.39-1.33.49s-1.06.11-1.66.05c-.45-.05-.97-.16-1.55-.34-.58-.18-1.21-.47-1.91-.89l.75-1.4c.54.33,1.06.57,1.54.72s.93.25,1.34.29c.28.03.54.01.79-.04.25-.05.46-.14.65-.26.19-.12.34-.26.45-.43.11-.17.18-.36.2-.57.04-.38-.06-.72-.3-1.02-.23-.3-.54-.59-.91-.86-.38-.28-.78-.55-1.21-.83-.44-.28-.84-.59-1.21-.93-.37-.34-.67-.72-.89-1.15s-.3-.93-.25-1.5c.05-.51.19-.95.41-1.31.22-.36.5-.65.84-.85.34-.21.73-.36,1.16-.43.43-.08.88-.09,1.36-.05.24.02.47.06.7.09.23.04.46.09.7.15.24.06.5.14.76.23s.55.21.88.35l-.72,1.37c-.46-.18-.88-.32-1.25-.42-.37-.09-.73-.16-1.08-.2Z"/>
        <path class="cls-10" d="m89.12,15.54c-.15.51-.39.93-.71,1.27-.32.34-.68.6-1.1.79-.42.19-.86.3-1.33.35s-.94.02-1.41-.08c-.24-.05-.48-.12-.73-.21-.25-.09-.5-.22-.76-.38.1-.12.22-.25.34-.38.12-.14.26-.25.4-.35.15-.1.3-.17.46-.23.16-.05.34-.06.52-.03.22.04.43.04.65-.01.22-.05.42-.14.6-.26.19-.13.36-.29.5-.49.15-.2.26-.42.33-.66.08-.26.1-.52.07-.78-.03-.26-.12-.5-.25-.73-.14-.23-.31-.43-.54-.61-.23-.18-.5-.31-.81-.41-.14-.04-.26-.08-.36-.1-.1-.02-.19-.05-.29-.07-.09-.02-.19-.04-.3-.06s-.23-.04-.36-.07l-2.89,9.58-2.19-.66,3.29-10.88c.43.05.8.1,1.13.15.33.05.62.1.89.15.27.05.53.11.77.17.24.06.51.13.78.22.62.19,1.16.44,1.64.76.48.32.86.69,1.16,1.1.3.42.5.87.59,1.36.1.49.06,1.01-.1,1.54Z"/>
        <path class="cls-10" d="m90.42,25.17l-2-.96,4.96-10.39,2,.96-4.96,10.39Z"/>
        <path class="cls-10" d="m97.1,29.46c-.82-.54-1.46-1.16-1.92-1.83-.46-.68-.76-1.39-.9-2.12-.14-.74-.12-1.48.06-2.23.18-.75.5-1.47.96-2.17.46-.68,1-1.25,1.64-1.7.64-.45,1.32-.75,2.06-.9s1.51-.15,2.31.01c.81.16,1.6.51,2.39,1.04.37.25.72.53,1.05.85.33.32.65.7.97,1.14l-1.28.9c-.31-.38-.59-.67-.83-.9-.24-.23-.51-.44-.81-.64-.53-.35-1.06-.55-1.58-.6-.52-.05-1.03,0-1.5.17-.48.16-.92.42-1.34.76-.42.35-.77.75-1.08,1.21-.31.45-.54.94-.7,1.46s-.23,1.03-.2,1.54c.03.51.17.99.42,1.45.25.46.64.86,1.17,1.22.59.39,1.3.65,2.13.77l-.31,1.52c-.53-.06-1.03-.17-1.48-.33s-.87-.36-1.24-.61Z"/>
        <path class="cls-10" d="m108.2,23.32l4.93,4.84-1.14,1.16-3.31-3.25-5.78,5.88,3.49,3.43-1.14,1.16-5.11-5.02,8.07-8.21Zm-2.35,6.48c.16-.08.33-.16.53-.24.19-.08.39-.13.59-.15.2-.02.4,0,.59.04.2.05.38.16.54.32l1.37,1.34-1.12,1.14-2.5-2.45Z"/>
        <path class="cls-10" d="m116.53,34.8c-.27-.39-.59-.63-.94-.73s-.68-.05-.97.16c-.3.21-.47.5-.53.87-.06.37-.08.79-.04,1.24.04.46.09.95.16,1.47.07.53.09,1.04.06,1.55-.03.51-.15.99-.35,1.46-.2.47-.55.88-1.05,1.23-.41.29-.84.47-1.28.54-.44.07-.86.03-1.29-.1-.42-.14-.84-.36-1.24-.69-.4-.32-.78-.73-1.13-1.22-.26-.37-.51-.84-.75-1.4-.25-.56-.44-1.23-.58-2.02l1.55-.36c.1.62.26,1.17.46,1.64s.42.87.66,1.2c.16.23.35.42.55.57.2.15.41.26.62.32.21.07.42.08.62.06.2-.02.39-.1.56-.22.31-.22.51-.52.58-.89.07-.38.09-.79.06-1.26-.04-.46-.09-.95-.16-1.46-.08-.51-.11-1.01-.09-1.52.02-.5.11-.98.3-1.43.18-.45.5-.84.97-1.17.42-.3.84-.48,1.26-.55.41-.07.81-.04,1.2.08.38.12.74.32,1.08.59.34.28.65.61.92,1,.14.2.27.39.39.59.12.19.23.4.34.63.11.22.22.47.32.73s.2.56.31.9l-1.51.35c-.16-.47-.33-.88-.5-1.22-.17-.35-.36-.66-.56-.94Z"/>
      </g>
      <g>
        <path class="cls-10" d="m21.62,83.09l1.41-.52,2.62,7.15-1.41.52-.96-2.6-8.55,3.14-.71-1.95,8.55-3.14-.96-2.6Z"/>
        <path class="cls-10" d="m18.76,99.13c0-.16.04-.3.12-.44.08-.14.16-.26.26-.38l.24-.18-.3-.03c-.56-.19-.97-.41-1.24-.64-.27-.23-.49-.51-.66-.83-.17-.31-.26-.61-.29-.91-.03-.3,0-.59.09-.86.08-.27.22-.52.4-.73.18-.21.4-.39.66-.53.27-.15.55-.23.86-.25.31-.03.64.04.98.2.35.16.72.43,1.1.8.39.38.79.89,1.21,1.53-.32.12-.63.17-.92.16-.29-.01-.54-.14-.74-.38-.23-.3-.46-.47-.7-.53-.24-.06-.47-.03-.68.09-.22.12-.36.3-.43.54-.06.24-.03.47.09.69.13.25.35.45.65.6.3.16.64.27,1.03.35l1.93-1.06c.45-.24.73-.56.87-.94.13-.39.07-.81-.17-1.26-.12-.22-.26-.43-.44-.65s-.4-.45-.68-.69l.89-1.05c.38.29.72.61,1.01.98.3.36.53.69.69.99.5.91.64,1.74.44,2.49-.21.75-.76,1.37-1.67,1.86l-2.37,1.29c-.24.13-.49.29-.74.46-.25.18-.51.38-.76.62l-.72-1.32Z"/>
        <path class="cls-10" d="m22.1,101.04c.13.47.27.87.42,1.19s.32.61.5.86c.21.29.43.46.65.5.22.05.4.01.55-.1.17-.12.27-.3.28-.53.01-.23,0-.48-.06-.77-.05-.29-.12-.59-.19-.91-.08-.31-.12-.63-.13-.95-.01-.32.04-.63.14-.92.11-.29.31-.55.63-.78.19-.14.42-.24.68-.32.26-.08.54-.09.84-.04.3.05.6.17.92.37.31.2.62.49.91.89.2.27.38.55.54.86.16.31.32.7.47,1.16l-1.34.39c-.14-.36-.27-.65-.38-.85-.11-.21-.24-.41-.38-.61-.17-.23-.34-.38-.53-.44-.19-.07-.36-.04-.53.08-.16.12-.25.29-.27.52-.01.23,0,.48.06.77.05.29.11.59.18.91s.1.65.11.97c0,.32-.05.63-.15.92-.1.29-.31.55-.62.77-.29.2-.58.33-.9.38-.32.06-.63.04-.93-.04-.3-.08-.6-.21-.87-.4-.27-.19-.51-.43-.71-.7-.22-.3-.45-.68-.68-1.11-.23-.43-.43-.99-.6-1.68l1.37-.42Z"/>
        <path class="cls-10" d="m29.62,103.84l-.83-.89.84-.79,1.04.69,1.31-1.22,1.77.98-5.18,4.83c-.36.34-.58.68-.63,1.02-.06.34.02.64.26.89.09.1.21.21.36.32s.33.23.57.36l-.68,1.21c-.35-.18-.64-.35-.88-.51-.24-.16-.44-.32-.61-.5-.64-.68-.93-1.38-.88-2.1.05-.72.45-1.41,1.18-2.1l2.35-2.19Zm2.64,2.84c-.15-.15-.24-.32-.28-.5-.04-.18-.05-.36-.03-.54s.07-.36.14-.53c.07-.17.15-.33.24-.48l1.44,1.55-1.06.98-.45-.48Z"/>
        <path class="cls-10" d="m36.39,112.17c.16-.15.29-.33.38-.52.09-.19.15-.38.15-.57,0-.19-.02-.38-.09-.56-.08-.18-.2-.34-.38-.48-.16-.13-.34-.22-.55-.28s-.44-.07-.69-.02-.51.15-.77.32c-.26.17-.53.41-.79.74-.53.66-.8,1.29-.79,1.88,0,.6.24,1.09.72,1.48.27.21.55.39.85.53.31.14.69.27,1.14.39l-.46,1.37c-.57-.13-1.06-.3-1.49-.52s-.81-.46-1.17-.75c-.52-.42-.89-.88-1.12-1.37-.22-.49-.33-.99-.34-1.49,0-.5.09-.98.28-1.45.19-.48.44-.9.75-1.29.38-.46.8-.82,1.25-1.07.45-.24.92-.38,1.39-.42.47-.04.95.02,1.42.18.47.16.91.4,1.32.73.42.34.73.73.94,1.18s.31.9.28,1.37c-.03.47-.18.93-.46,1.38-.29.45-.71.85-1.26,1.2l-3.18-2.57c.3-.2.6-.32.9-.38.3-.05.55,0,.74.16l1.01.81Z"/>
        <path class="cls-10" d="m36.93,117.03c.09-.14.2-.25.33-.35.14-.09.28-.16.43-.2.15-.04.3-.04.46-.02s.31.08.46.18c.29.18.46.44.53.76s0,.63-.18.92-.43.46-.75.54c-.32.07-.62.01-.9-.17-.29-.18-.47-.43-.54-.75-.07-.32-.02-.62.16-.91Z"/>
        <path class="cls-10" d="m48.02,112.4l5.9,2.37-.56,1.39-3.97-1.6-2.83,7.06,4.18,1.68-.56,1.39-6.12-2.46,3.96-9.84Zm.3,6.34c.1-.13.23-.26.36-.39.14-.14.29-.25.45-.34s.33-.15.52-.17c.18-.03.37,0,.57.08l1.64.66-.55,1.37-2.99-1.2Z"/>
        <path class="cls-10" d="m55.47,118.34c.17.31.27.6.28.86.02.27,0,.55-.07.83l-1.31,5.79-1.99-.45,1.26-5.57c.12-.55.18-1.16.17-1.84l1.65.37Zm2.69,2.85c.05-.24.05-.44,0-.61-.06-.17-.22-.29-.46-.35-.09-.02-.19-.03-.28-.02-.09,0-.2,0-.34-.02-.11-.01-.21-.06-.3-.14-.08-.08-.15-.17-.21-.28-.06-.11-.11-.23-.16-.36-.05-.13-.09-.26-.13-.39.53-.14.98-.22,1.35-.23s.73.01,1.06.09c.25.06.48.16.7.3.22.15.4.34.54.57.14.23.24.5.29.81.05.31.03.66-.06,1.05l-1.19,5.25-1.99-.45,1.18-5.22Z"/>
        <path class="cls-10" d="m63.64,126.67c-.05.45-.14.86-.27,1.22-.13.36-.32.69-.58,1-.26.31-.59.61-.99.9s-.9.58-1.51.89l-.75-1.15c.39-.27.71-.52.96-.74.25-.22.45-.44.6-.67.15-.23.26-.47.33-.73.07-.26.13-.57.16-.93l.71-6.8,2.03.21-.71,6.81Zm-1.27-9.21c.03-.34.18-.61.43-.83.25-.21.55-.3.89-.27.34.04.61.18.82.45.21.26.3.56.26.9-.04.34-.18.61-.44.81-.26.2-.55.29-.89.25-.34-.03-.61-.18-.81-.43s-.29-.55-.25-.89Z"/>
        <path class="cls-10" d="m73.34,123.7c.01.62-.09,1.18-.31,1.68-.22.5-.51.92-.87,1.27-.36.35-.77.61-1.24.8s-.94.29-1.42.3c-.52,0-1.01-.07-1.49-.24-.47-.16-.9-.41-1.26-.74-.37-.33-.66-.74-.89-1.23-.22-.49-.34-1.06-.35-1.69-.01-.68.1-1.27.34-1.78.24-.51.55-.92.93-1.25.38-.33.8-.58,1.25-.74.46-.16.9-.25,1.32-.26.58-.01,1.12.08,1.6.26.48.19.9.45,1.25.79.35.35.63.76.83,1.23.2.48.3,1.01.31,1.59Zm-3.86,2.54c.28,0,.53-.08.75-.21.22-.14.39-.31.54-.54.14-.23.24-.49.31-.79s.1-.62.09-.96c0-.34-.05-.66-.13-.95-.08-.3-.19-.55-.34-.77-.15-.22-.33-.39-.56-.52-.22-.13-.47-.18-.75-.18-.28,0-.53.08-.75.21-.22.14-.39.31-.54.54s-.25.49-.32.78c-.07.3-.1.61-.1.95,0,.37.06.7.14,1s.21.55.37.77c.15.22.34.38.56.5.22.12.46.17.73.17Z"/>
        <path class="cls-10" d="m77.36,122.73c.15.3.27.62.35.98.08.36.12.73.13,1.09,0,.36,0,.7-.05,1.03s-.11.61-.19.83l-4.02-6.73,2.15-.4,1.64,3.2Zm-.4,6.4c.25-.05.45-.15.61-.3.16-.15.29-.35.39-.59.1-.24.18-.54.24-.89s.12-.75.18-1.2l.83-7.27,2.05-.38-1.27,7.75c-.12.67-.25,1.25-.37,1.75s-.28.93-.47,1.28c-.19.35-.44.64-.75.86-.3.22-.7.37-1.19.46-.19.03-.4.05-.64.05-.23,0-.47-.02-.72-.08l.22-1.39c.17.02.32.02.46,0,.14-.01.27-.03.4-.06Z"/>
        <path class="cls-10" d="m84,124.43c-.05-.16-.07-.32-.05-.48.02-.16.06-.31.13-.45.07-.14.16-.26.28-.37.12-.1.26-.18.43-.23.32-.1.63-.08.92.08s.49.4.59.73c.1.32.08.63-.07.92-.15.29-.39.48-.71.58-.32.1-.63.08-.92-.07-.29-.15-.49-.38-.59-.71Z"/>
        <path class="cls-10" d="m95.68,112.07c.28.51.41,1.02.39,1.52-.03.5-.17.97-.42,1.41l-.28.34s.1,0,.18-.01c.07,0,.13,0,.18,0,.38.08.72.23,1.03.45.31.23.62.48.92.78.3.3.61.61.94.95.33.34.69.66,1.11.97l-1.88,1.03c-.33-.24-.64-.52-.94-.84-.3-.32-.59-.63-.88-.92s-.59-.55-.89-.78c-.3-.23-.62-.37-.96-.42-.17.11-.36.22-.57.32-.21.09-.44.17-.7.23-.01-.15-.03-.3-.03-.47,0-.17,0-.33.03-.5.02-.16.08-.32.15-.46.07-.14.18-.26.31-.35.17-.12.31-.26.42-.42.11-.17.19-.35.23-.54.04-.2.05-.4.02-.62-.03-.22-.1-.43-.21-.63-.12-.22-.28-.4-.48-.54-.2-.14-.41-.23-.64-.28-.23-.05-.48-.05-.74-.01-.26.04-.51.13-.76.27-.12.07-.22.13-.3.17-.08.05-.15.1-.23.14s-.15.1-.23.16c-.08.06-.17.13-.28.19l4.44,8.08-1.84,1.01-5.04-9.18c.31-.25.58-.46.83-.65s.47-.35.67-.49.41-.27.61-.39c.2-.12.41-.24.65-.37.5-.28,1.01-.47,1.52-.59.51-.12,1-.14,1.47-.08.47.06.89.22,1.28.46.39.25.7.6.95,1.05Z"/>
        <path class="cls-10" d="m102.6,110.45c-.12-.19-.26-.35-.42-.48s-.34-.22-.53-.27c-.18-.05-.37-.06-.56-.03s-.38.12-.55.26c-.16.13-.29.29-.39.48-.1.19-.16.41-.17.66-.01.25.03.53.14.82.11.3.29.61.55.94.53.66,1.08,1.06,1.67,1.18.58.12,1.12,0,1.59-.38.27-.22.5-.45.7-.72.21-.27.41-.61.63-1.03l1.25.75c-.25.53-.53.97-.83,1.34-.3.37-.63.69-.98.98-.52.42-1.05.68-1.58.79-.53.11-1.04.11-1.52,0-.49-.11-.94-.3-1.36-.59-.42-.29-.78-.62-1.09-1.01-.38-.47-.63-.96-.77-1.46s-.17-.98-.11-1.45c.07-.47.23-.92.49-1.35.26-.43.59-.81,1-1.13.42-.33.87-.55,1.36-.66s.95-.1,1.4.02c.45.13.86.38,1.24.75s.68.88.9,1.5l-3.2,2.54c-.13-.33-.18-.65-.17-.95.01-.3.12-.53.32-.69l1.02-.81Z"/>
        <path class="cls-10" d="m105.81,102.95c.35-.39.74-.67,1.17-.83.43-.17.87-.24,1.33-.22s.91.15,1.38.37c.46.22.91.52,1.33.9.38.35.69.74.92,1.19.23.45.37.89.43,1.35s.04.9-.07,1.32c-.11.43-.3.8-.58,1.11-.17.19-.35.36-.53.51-.19.15-.45.34-.78.55-.16-.33-.26-.63-.3-.9s.01-.49.16-.69c.38-.47.48-.95.32-1.42-.16-.48-.5-.95-1.02-1.41-.25-.23-.52-.42-.79-.57-.27-.15-.54-.25-.79-.3s-.5-.06-.73-.01c-.23.05-.42.16-.58.34-.37.4-.49,1.05-.38,1.94l6.47,5.86-1.37,1.51-6.84-6.19c-.2-.18-.43-.37-.68-.55-.25-.18-.53-.36-.83-.53l1.05-1.16c.15-.05.3-.05.45-.03.16.03.31.07.46.12l.24.16-.07-.36c0-.53.04-.95.15-1.27s.26-.58.45-.8Z"/>
        <path class="cls-10" d="m113.76,97.37c-.17-.15-.36-.25-.56-.32-.2-.07-.39-.1-.58-.09s-.37.06-.54.16c-.17.09-.32.23-.44.42-.11.17-.18.36-.22.58s-.01.44.05.68c.07.24.2.49.4.73.2.25.47.48.82.71.71.46,1.36.65,1.96.58.6-.07,1.06-.36,1.39-.87.18-.29.33-.59.44-.91.11-.32.19-.71.26-1.17l1.42.3c-.07.58-.19,1.09-.35,1.54-.16.44-.37.86-.62,1.24-.36.56-.78.98-1.24,1.26s-.94.44-1.44.5c-.49.06-.99.02-1.48-.12-.49-.14-.95-.34-1.36-.61-.51-.32-.91-.7-1.2-1.13s-.48-.87-.57-1.34c-.09-.46-.08-.95.03-1.43.1-.49.3-.95.58-1.39.29-.45.65-.81,1.07-1.07.42-.26.87-.4,1.33-.42.46-.03.94.08,1.42.31.48.24.92.61,1.33,1.13l-2.21,3.44c-.23-.27-.39-.56-.47-.85-.08-.29-.06-.54.08-.76l.7-1.09Z"/>
        <path class="cls-10" d="m121.71,91.83c-.13.09-.27.15-.42.17-.15.02-.31.03-.47.02l-.29-.08.16.26c.19.56.27,1.02.24,1.37-.02.35-.11.7-.26,1.03-.15.32-.33.58-.55.79-.22.2-.47.35-.74.45-.27.1-.54.14-.83.13-.28-.01-.55-.08-.82-.2-.28-.12-.52-.3-.72-.53s-.35-.53-.44-.9c-.08-.37-.09-.83-.03-1.36.06-.53.23-1.17.49-1.89.29.18.52.39.69.64.17.24.22.52.15.82-.1.36-.1.66,0,.88.1.23.26.39.49.49.23.1.46.11.69.01.23-.09.4-.26.5-.49.11-.26.14-.55.08-.89-.06-.34-.17-.68-.34-1.04l-2.01-.9c-.46-.21-.89-.24-1.28-.11-.39.13-.69.43-.9.9-.1.23-.18.47-.25.74s-.11.59-.14.95l-1.37-.07c0-.48.06-.95.16-1.4.11-.45.23-.84.37-1.15.42-.95,1-1.57,1.72-1.86s1.55-.23,2.49.19l2.47,1.1c.25.11.52.21.82.31.29.09.61.17.96.23l-.61,1.37Z"/>
        <path class="cls-10" d="m117.3,86.16l-.34,1.16-1.11-.32.06-1.24-1.72-.5-.06-2.03,6.79,1.98c.47.14.88.15,1.2.02.33-.12.53-.35.63-.67.04-.13.07-.29.09-.47.02-.18.03-.4.01-.67l1.39-.04c.01.39.02.73,0,1.01,0,.29-.05.55-.12.78-.26.9-.71,1.5-1.35,1.82-.64.32-1.44.34-2.4.06l-3.08-.9Zm1.08-3.73c-.06.21-.15.37-.29.5-.13.13-.28.23-.45.3s-.34.13-.52.15c-.18.03-.37.04-.54.04l.59-2.04,1.39.41-.18.63Z"/>
        <path class="cls-10" d="m123.74,81.86c-.16-.03-.31-.09-.45-.18-.14-.09-.25-.2-.34-.32-.09-.13-.15-.27-.18-.42-.04-.15-.04-.32,0-.49.07-.33.23-.59.51-.77.28-.18.58-.24.91-.18.33.06.6.23.78.5s.24.57.18.9c-.06.34-.23.6-.5.79-.27.19-.57.25-.9.18Z"/>
      </g>
      <path class="cls-5" d="m132.6,68.51c0,35.41-28.7,64.11-64.1,64.11S4.41,103.91,4.41,68.51,33.1,4.41,68.51,4.41c25.96,0,48.32,15.43,58.39,37.64.23.51.46,1.04.69,1.57,2.89,6.85,4.62,14.32,4.95,22.16.03.48.04.95.04,1.43.03.44.03.86.03,1.3Z"/>
      <path class="cls-2" d="m136.16,68.51c0,37.37-30.3,67.67-67.65,67.67S.85,105.88.85,68.51,31.14.85,68.51.85c27.4,0,51,16.29,61.64,39.72.24.54.49,1.1.73,1.65,3.05,7.23,4.88,15.11,5.22,23.39.03.5.04,1.01.04,1.51.03.46.03.91.03,1.38Z"/>
      <g>
        <path class="cls-10" d="m50.17,38.48c-.22,0-.39.05-.52.16s-.2.24-.2.41.06.31.18.43.28.23.46.34c.18.11.38.22.6.33.21.11.41.24.59.38s.33.32.46.52c.12.2.18.44.18.72,0,.23-.04.44-.13.62s-.22.33-.38.46-.36.22-.58.28c-.23.06-.48.1-.75.1-.21,0-.45-.03-.72-.08-.27-.05-.58-.16-.91-.31l.28-.67c.26.13.51.21.73.26.23.05.44.07.62.07.13,0,.25-.02.36-.05s.2-.08.28-.15c.08-.06.14-.14.18-.22s.07-.17.07-.27c0-.17-.06-.32-.18-.45s-.27-.24-.46-.35-.38-.22-.59-.32-.41-.23-.59-.37-.34-.3-.45-.49c-.12-.19-.18-.41-.18-.67,0-.24.04-.44.13-.62.08-.17.2-.31.34-.43s.31-.2.51-.25c.19-.05.4-.08.61-.08.11,0,.22,0,.32,0,.1,0,.21.02.32.04.11.02.23.04.36.07s.26.07.42.12l-.27.66c-.22-.06-.41-.11-.59-.13s-.34-.04-.5-.04Z"/>
        <path class="cls-10" d="m53.98,43.12h-1.01v-5.27h1.01v5.27Z"/>
        <path class="cls-10" d="m56.35,39.43l-.12-.26v.25s.01,3.7.01,3.7h-.89v-5.27h1l2.22,3.54.1.29v-.29s-.01-3.54-.01-3.54h.92v5.27h-.92l-2.33-3.69Z"/>
        <path class="cls-10" d="m63.57,43.21c-.45,0-.85-.07-1.2-.21-.35-.14-.64-.33-.88-.58-.24-.25-.42-.54-.54-.87-.12-.33-.18-.69-.18-1.07s.06-.73.19-1.06c.13-.33.31-.62.55-.87.24-.24.54-.44.89-.58.35-.14.74-.21,1.17-.21.2,0,.41.02.61.06s.43.1.66.19l-.26.67c-.21-.06-.39-.11-.54-.13s-.31-.04-.47-.04c-.29,0-.54.06-.75.17s-.39.26-.53.45c-.14.18-.25.39-.32.63-.07.23-.1.48-.1.73s.03.5.1.73c.07.24.18.45.32.63.14.19.31.34.53.45s.46.16.75.16c.32,0,.66-.08,1.01-.24l.27.66c-.22.11-.44.2-.65.25-.22.06-.43.08-.63.08Z"/>
        <path class="cls-10" d="m65.48,37.85h3.16v.75h-2.12v3.78h2.24v.75h-3.27v-5.27Zm1.31,2.87c.02-.08.05-.16.09-.25.04-.09.08-.17.14-.24s.13-.13.21-.18.17-.07.28-.07h.88v.73h-1.6Z"/>
        <path class="cls-10" d="m74.79,39.33c0,.24-.07.48-.2.74s-.3.51-.49.76-.39.5-.6.73-.4.45-.56.65l-.12.13.17-.02h1.88v.79h-3.34v-.43c.07-.16.17-.33.3-.51.13-.18.28-.37.45-.56s.33-.39.5-.58c.17-.2.32-.39.46-.59.14-.19.26-.37.35-.55s.13-.34.13-.5c0-.23-.08-.41-.23-.53s-.35-.19-.59-.19c-.11,0-.24.02-.4.05s-.32.09-.51.17l-.26-.67c.24-.11.46-.19.67-.23s.4-.07.57-.07c.28,0,.53.03.76.09.22.06.42.15.58.28s.28.27.37.44.13.36.13.58Z"/>
        <path class="cls-10" d="m79.95,40.59c0,.35-.04.68-.13,1.01s-.22.6-.4.85-.4.45-.67.59c-.27.15-.58.22-.95.22-.32,0-.61-.06-.87-.19-.26-.12-.49-.3-.68-.53-.19-.23-.33-.51-.44-.84s-.15-.7-.15-1.12.05-.76.15-1.09.24-.61.43-.85.41-.42.68-.55.56-.19.89-.19c.38,0,.7.08.97.24.27.16.49.37.67.62s.3.54.38.86.12.64.12.96Zm-1.1,0c0-.29-.02-.56-.07-.8-.04-.24-.11-.44-.19-.61-.09-.17-.2-.3-.33-.39s-.28-.14-.46-.14-.33.05-.46.14c-.13.09-.24.22-.33.39-.09.17-.15.37-.19.61s-.06.51-.06.8.02.56.07.8c.04.24.11.44.2.6s.2.3.33.39c.13.09.28.14.45.14s.33-.04.46-.14.24-.22.33-.39.15-.37.19-.6c.04-.23.07-.5.07-.8Z"/>
        <path class="cls-10" d="m85.19,40.59c0,.35-.04.68-.13,1.01s-.22.6-.4.85-.4.45-.67.59c-.27.15-.58.22-.95.22-.32,0-.61-.06-.87-.19-.26-.12-.49-.3-.68-.53-.19-.23-.33-.51-.44-.84s-.15-.7-.15-1.12.05-.76.15-1.09.24-.61.43-.85.41-.42.68-.55.56-.19.89-.19c.38,0,.7.08.97.24.27.16.49.37.67.62s.3.54.38.86.12.64.12.96Zm-1.1,0c0-.29-.02-.56-.07-.8-.04-.24-.11-.44-.19-.61-.09-.17-.2-.3-.33-.39s-.28-.14-.46-.14-.33.05-.46.14c-.13.09-.24.22-.33.39-.09.17-.15.37-.19.61s-.06.51-.06.8.02.56.07.8c.04.24.11.44.2.6s.2.3.33.39c.13.09.28.14.45.14s.33-.04.46-.14.24-.22.33-.39.15-.37.19-.6c.04-.23.07-.5.07-.8Z"/>
        <path class="cls-10" d="m86.67,43.12c.06-.41.13-.8.21-1.16.08-.36.18-.71.3-1.05.12-.34.26-.66.42-.98.16-.32.35-.64.56-.96l.11-.11h-.18s-1.9.01-1.9.01v-.83h3.17v.7c-.2.26-.38.52-.56.8-.17.27-.33.58-.47.93s-.27.73-.37,1.16-.18.93-.23,1.49h-1.05Z"/>
      </g>
      <path class="cls-3" d="m109.71,52.98c-3.83.2-15.83.77-19.04-.27-2.2-.71-4.48-1.25-6.75-1.71-3.85-.77-7.73-1.37-11.58-2.16-1.83-.38-3.55-.11-5.27.36-2.15.59-4.3,1.19-6.41,1.89-2.03.68-4.01,1.48-6,2.27-3.15,1.25-6.33,2.35-9.74,2.62-1.07.08-2.41.68-2.78,1.27-.2.32-.52.6-.33,1.15.25.43.69.59,1,.54,2.62-.42,5.27-.95,7.82-1.65,1.64-.45,3.06-.92,4.62-1.41.22-.07.55-.1.79-.1.02.12.05.23.08.35-2.06.74-4.1,1.57-6.2,2.21-1.87.56-3.8.97-5.72,1.34-1.42.28-2.86.51-4.3.57-2.8.12-3.28,2.41-2.28,4.19.19.34.73.63,1.06.58,2.48-.31,4.98-.62,7.43-1.11,2.42-.49,4.79-1.18,7.18-1.8.63-.16,1.24-.36,1.86-.54.04.12.08.24.13.36-.52.23-1.02.51-1.55.68-1.86.6-3.72,1.22-5.6,1.73-1.83.5-3.69.92-5.55,1.28-1.51.29-3.04.48-4.57.63-1.31.13-2.42.52-3.05,1.78-.57,1.16-.25,2.26.38,3.26.58.92,1.53,1.25,2.59,1.18,2.02-.15,4.04-.25,6.04-.55,2.05-.31,4.09-.77,6.1-1.26,1.9-.46,3.76-1.07,5.65-1.59.26-.07.69-.25,1.2-.22-.54.78-1.1,1.67-1.53,2.3-.49.72-1.04,1.41-1.46,2.17-.38.69-.48,1.5.08,2.14,1.27,1.44,2.57,2.86,3.92,4.23,1.12,1.13,2.37,2.15,3.51,3.26,2.07,2.02,4.8,1.41,5.83-1.33.08-.22.18-.44.38-.92.31.44.56.72.73,1.04.64,1.19,1.53,2.09,2.87,2.43.79.2,1.49-.05,2.1-.58,2.88-2.53,5.78-5.03,8.64-7.58.67-.6,1.3-1.28,1.79-2.03,1.11-1.68,2.79-2.35,4.6-2.79,3.29-.8,20.86-.54,24.03.55m-38.75,2.2c-1.13,1-2.27,2-3.35,3.05-.92.89-1.78,1.85-2.73,2.84-.27-1.4-1.47-1.86-2.43-2.55-1.59-1.15-3.1-2.96-2.63-5.01.45-1.95.76-2.6,2.36-3.5.45-.26,2.28-.78,3.31-.06.18.12.38.26.68.47.18-.43.3-.79.47-1.12,1.01-1.93,3.87-1.85,5.16.15,1.1,1.72,1.35,3.81-.84,5.74Z"/>
      <path class="cls-1" d="m112.52,68.51c0,24.31-19.71,44.02-44.02,44.02s-44.02-19.71-44.02-44.02,19.7-44.02,44.02-44.02c17.83,0,33.18,10.6,40.1,25.84.15.35.32.71.47,1.08,1.99,4.71,3.17,9.83,3.4,15.22.02.33.03.65.03.98.02.3.02.59.02.89Z"/>
    </g>
  </g>
</svg>