<?xml version="1.0" encoding="UTF-8"?>
<svg id="Layer_2" data-name="Layer 2" xmlns="http://www.w3.org/2000/svg" viewBox="0 0 25.23 25.23">
  <defs>
    <style>
      .cls-1 {
        fill: #f8a81a;
      }
    </style>
  </defs>
  <g id="Icons">
    <g>
      <path class="cls-1" d="m15.48,23.91c0-.08-.03-.16-.08-.23-.17-.27-.52-.35-.79-.19-.46.28-.94.46-1.42.55v-5.68h.92c.32,0,.57-.26.57-.57s-.26-.57-.57-.57h-.92v-4.01h1.35c.32,0,.57-.26.57-.57s-.26-.57-.57-.57h-1.35v-4.01h5.2c.34,1.41.53,2.96.53,4.59,0,.32.26.57.57.57h4.56c-.03.59-.09,1.18-.21,1.74-.07.31.13.61.44.68.31.07.61-.13.68-.44.18-.83.26-1.69.26-2.56C25.23,5.66,19.57,0,12.62,0S0,5.66,0,12.62s5.66,12.62,12.62,12.62c.91,0,1.81-.1,2.67-.29.31-.07.5-.38.43-.68-.03-.15-.12-.27-.24-.35h0Zm-3.43.12c-2.09-.34-3.88-2.54-4.88-5.68h4.88v5.68Zm0-6.83h-5.2c-.3-1.24-.48-2.59-.51-4.01h5.72v4.01ZM1.18,13.19h4c.04,1.42.2,2.77.48,4.01h-3.55c-.54-1.24-.86-2.59-.94-4.01Zm.94-5.16h3.55c-.28,1.25-.45,2.6-.48,4.01H1.18c.07-1.42.39-2.77.94-4.01Zm9.93,4.01h-5.72c.04-1.42.22-2.77.51-4.01h5.2v4.01Zm0-10.84v5.68h-4.88c1-3.14,2.79-5.34,4.88-5.68Zm1.15,5.68V1.2c2.09.34,3.88,2.54,4.88,5.68h-4.88Zm6.38,1.15h3.55c.54,1.24.86,2.59.94,4.01h-3.99c-.04-1.42-.21-2.76-.49-4.01h0Zm2.96-1.15h-3.26c-.62-2.08-1.56-3.82-2.72-5.02,2.53.93,4.64,2.72,5.98,5.02h0ZM8.69,1.85c-1.17,1.21-2.11,2.94-2.73,5.03h-3.26c1.34-2.31,3.45-4.1,5.99-5.03h0ZM2.7,18.35h3.26c.62,2.09,1.56,3.82,2.73,5.03-2.53-.93-4.65-2.72-5.99-5.03h0Z"/>
      <path class="cls-1" d="m24.52,16.64l-7.77-3.73c-.39-.19-.85-.15-1.21.1-.36.25-.55.67-.51,1.1l.85,8.58c.05.48.36.87.82,1.02.46.15.94.03,1.27-.33l1.08-1.18,1.41,2.01c.28.39.69.66,1.16.74.11.02.21.03.32.03.37,0,.72-.11,1.03-.33l.99-.69c.81-.57,1.01-1.7.44-2.51l-1.41-2.01,1.48-.61c.45-.18.73-.6.74-1.08.01-.48-.25-.91-.68-1.12h0Zm-2.69,1.98c-.17.07-.3.21-.35.39-.05.18-.02.36.08.51l1.84,2.63c.19.27.12.65-.15.84l-.99.69c-.13.09-.29.13-.45.1-.16-.03-.3-.12-.39-.25l-1.84-2.63c-.1-.15-.27-.24-.45-.26-.01,0-.03,0-.04,0-.17,0-.33.07-.44.2l-1.59,1.73-.85-8.58,7.78,3.73-2.17.9h0Z"/>
    </g>
  </g>
</svg>